<?xml version="1.0" encoding="iso-8859-1"?>
<!-- Generator: Adobe Illustrator 18.0.0, SVG Export Plug-In . SVG Version: 6.00 Build 0)  -->
<!DOCTYPE svg PUBLIC "-//W3C//DTD SVG 1.1//EN" "http://www.w3.org/Graphics/SVG/1.1/DTD/svg11.dtd">
<svg xmlns="http://www.w3.org/2000/svg" xmlns:xlink="http://www.w3.org/1999/xlink" version="1.1" id="Capa_1" x="0px" y="0px" viewBox="0 0 56.896 56.896" style="enable-background:new 0 0 56.896 56.896;" xml:space="preserve" width="512px" height="512px">
<g>
	<circle cx="7.892" cy="36.448" r="1" fill="#FFFFFF"/>
	<circle cx="11.892" cy="36.448" r="1" fill="#FFFFFF"/>
	<circle cx="7.892" cy="40.448" r="1" fill="#FFFFFF"/>
	<circle cx="9.892" cy="38.448" r="1" fill="#FFFFFF"/>
	<circle cx="11.892" cy="40.448" r="1" fill="#FFFFFF"/>
	<circle cx="13.892" cy="42.448" r="1" fill="#FFFFFF"/>
	<path d="M56.366,17.385c-0.892-1.812-2.683-2.937-4.675-2.937H32.037c1.59-1.066,2.932-2.66,2.932-5v-1H16.136   c-1.879,0-3.722,0.32-5.475,0.953C4.284,11.701,0,17.803,0,24.584v11.823c0,6.64,5.401,12.041,12.041,12.041h18.428   c2.481,0,4.5-2.019,4.5-4.5v-1c0-1.129-0.418-2.163-1.107-2.954c1.869-0.775,3.107-2.476,3.107-4.546   c0-1.292-0.482-2.471-1.274-3.358c1.749-0.68,3.059-2.253,3.249-4.131c0.127-1.254-0.228-2.511-0.979-3.511h14.133   c1.463,0,2.847-0.708,3.797-1.941C57.037,21.022,57.214,19.107,56.366,17.385z M54.31,21.286c-0.569,0.738-1.376,1.162-2.213,1.162   H49v-1.586l1.707-1.707c0.391-0.391,0.391-1.023,0-1.414s-1.023-0.391-1.414,0l-1.999,1.999c-0.093,0.092-0.166,0.203-0.217,0.326   C47.026,20.188,47,20.318,47,20.448v2H34.969h-1H22c-0.553,0-1,0.447-1,1s0.447,1,1,1h11.969c0.843,0,1.654,0.362,2.225,0.994   c0.577,0.638,0.847,1.46,0.76,2.315c-0.152,1.509-1.546,2.69-3.173,2.69h-0.812h-0.903H23c-0.553,0-1,0.447-1,1   c0,0.553,0.447,1,1,1h9.065c1.601,0,2.903,1.346,2.903,3c0,1.767-1.423,3-3.461,3h-0.539h-0.5H25c-0.553,0-1,0.447-1,1s0.447,1,1,1   h5.469c1.379,0,2.5,1.121,2.5,2.5v1c0,1.379-1.121,2.5-2.5,2.5H12.041C6.504,46.448,2,41.944,2,36.407V24.584   c0-5.94,3.753-11.286,9.339-13.302c1.536-0.554,3.149-0.834,4.797-0.834h16.686c-0.891,2.912-5.542,3.882-6.172,4H18   c-0.553,0-1,0.447-1,1s0.447,1,1,1h8.738h1.23h23.723c1.463,0,2.447,0.94,2.88,1.819C55.075,19.291,54.977,20.419,54.31,21.286z" fill="#FFFFFF"/>
	<path d="M30,17.448c-0.553,0-1,0.447-1,1v2c0,0.553,0.447,1,1,1s1-0.447,1-1v-2C31,17.895,30.553,17.448,30,17.448z" fill="#FFFFFF"/>
	<path d="M33,17.448c-0.553,0-1,0.447-1,1v2c0,0.553,0.447,1,1,1s1-0.447,1-1v-2C34,17.895,33.553,17.448,33,17.448z" fill="#FFFFFF"/>
	<path d="M48,26.377l-3.535,3.536C43.521,30.857,43,32.112,43,33.448s0.521,2.592,1.465,3.535c0.975,0.975,2.255,1.462,3.536,1.462   c1.28,0,2.561-0.487,3.535-1.462c1.949-1.949,1.949-5.121,0-7.07L48,26.377z M50.122,35.569c-1.171,1.171-3.074,1.169-4.243,0   C45.313,35.003,45,34.25,45,33.448s0.313-1.555,0.879-2.121L48,29.205l2.122,2.122C51.292,32.497,51.292,34.399,50.122,35.569z" fill="#FFFFFF"/>
</g>
<g>
</g>
<g>
</g>
<g>
</g>
<g>
</g>
<g>
</g>
<g>
</g>
<g>
</g>
<g>
</g>
<g>
</g>
<g>
</g>
<g>
</g>
<g>
</g>
<g>
</g>
<g>
</g>
<g>
</g>
</svg>
