<?xml version="1.0"?>
<svg xmlns="http://www.w3.org/2000/svg" height="512px" viewBox="0 -44 480 480" width="512px"><path d="m464 120.390625h-94.921875l23.457031-28.152344 1.808594 1.808594.199219.191406c3.308593 3.132813 7.703125 4.855469 12.257812 4.800781 8.429688-.566406 16.28125-4.480468 21.808594-10.871093l.628906-.679688c15.617188-16.734375 15.714844-38.519531.417969-52.800781l-24.199219-24.144531c-7.714843-7.199219-18-10.984375-28.539062-10.5039065-10.539063.4843755-20.4375 5.1914065-27.460938 13.0664065l-.648437.6875c-3.949219 4.066406-6.714844 9.132812-8 14.65625-1.417969 6.429687.6875 13.132812 5.527344 17.597656l2.089843 2.097656-78.824219 72.246094h-253.601562c-8.835938 0-16 7.164063-16 16 .203125 86.28125 50.011719 164.746094 128 201.648437v22.351563c0 17.675781 14.328125 32 32 32h160c17.671875 0 32-14.324219 32-32v-22.351563c77.988281-36.902343 127.796875-115.367187 128-201.648437 0-8.835937-7.164062-16-16-16zm-106.542969-85.847656c-.914062-.710938-1.285156-1.914063-.9375-3.015625.71875-2.582032 2.097657-4.933594 4-6.824219l.640625-.6875c4.292969-4.691406 10.242188-7.53125 16.59375-7.917969 6.097656-.34375 12.074219 1.804688 16.558594 5.949219l24.199219 24.191406c4.234375 3.574219 6.628906 8.863281 6.527343 14.402344-.527343 6.058594-3.195312 11.730469-7.527343 16l-.640625.679687c-4 4.257813-9.597656 6.847657-11.390625 5.304688l-2.6875-2.695312zm2.304688 24.921875 21.414062 21.421875-32.917969 39.503906h-54.960937zm-26.785157 269.519531c-3.542968 1.445313-5.566406 5.195313-4.832031 8.949219.738281 3.753906 4.03125 6.460937 7.855469 6.457031v16c0 8.839844-7.164062 16-16 16h-160c-8.835938 0-16-7.160156-16-16v-16c3.824219.003906 7.117188-2.703125 7.855469-6.457031.734375-3.753906-1.289063-7.503906-4.832031-8.949219-78.875-31.453125-130.730469-107.675781-131.023438-192.59375h448c-.292969 84.917969-52.148438 161.140625-131.023438 192.59375zm0 0" fill="#FFFFFF"/><path d="m270.398438 344.550781c-19.6875 4.722657-40.207032 4.804688-59.933594.242188-4.199219-1.386719-8.726563.890625-10.113282 5.085937-1.386718 4.199219.890626 8.726563 5.089844 10.113282 10.460938 2.914062 21.300782 4.261718 32.160156 4 12.09375-.058594 24.152344-1.320313 36-3.761719 4.195313-.988281 6.851563-5.125 6.003907-9.351563-.84375-4.230468-4.886719-7.027344-9.140625-6.328125zm0 0" fill="#FFFFFF"/><path d="m192 272.390625h24v24c0 4.417969 3.582031 8 8 8h32c4.417969 0 8-3.582031 8-8v-24h24c4.417969 0 8-3.582031 8-8v-32c0-4.417969-3.582031-8-8-8h-24v-24c0-4.417969-3.582031-8-8-8h-32c-4.417969 0-8 3.582031-8 8v24h-24c-4.417969 0-8 3.582031-8 8v32c0 4.417969 3.582031 8 8 8zm8-32h24c4.417969 0 8-3.582031 8-8v-24h16v24c0 4.417969 3.582031 8 8 8h24v16h-24c-4.417969 0-8 3.582031-8 8v24h-16v-24c0-4.417969-3.582031-8-8-8h-24zm0 0" fill="#FFFFFF"/></svg>
