<?xml version="1.0"?>
<svg xmlns="http://www.w3.org/2000/svg" height="512px" viewBox="0 -48 480.01008 480" width="512px"><path d="m456.011719 240.003906h-56v-8c0-13.253906-10.746094-24-24-24h-64c-13.257813 0-24 10.746094-24 24v24h-24.210938c5.296875-6.882812 8.179688-15.316406 8.210938-24 0-4.417968-3.582031-8-8-8h-16c-19.003907.023438-35.375 13.390625-39.203125 32h-1.597656c-3.828126-18.609375-20.199219-31.976562-39.199219-32h-16c-4.417969 0-8 3.582032-8 8 .027343 8.683594 2.910156 17.117188 8.199219 24h-24.199219v-248c0-4.417968-3.582031-7.99999975-8-7.99999975l-112 .27343775c-4.417969 0-8.0000002 3.582031-8.0000002 8v312c-.5390628 25.910156 19.9843752 47.375 45.8945312 48h242.105469v7.71875c0 4.417968 3.582031 8 8 8h160c13.253906 0 24-10.746094 24-24v-96c-.007813-13.25-10.75-23.992188-24-23.992188zm-152-8c0-4.417968 3.582031-8 8-8h64c4.417969 0 8 3.582032 8 8v8h-80zm-121.601563 120.265625-20.144531-80.265625h55.34375l20.128906 80.265625zm65.601563-112.265625h6.628906c-3.402344 9.582032-12.460937 15.988282-22.628906 16h-6.625c3.402343-9.578125 12.457031-15.984375 22.625-16zm-86.632813 0h6.632813c10.164062.015625 19.21875 6.421875 22.621093 16h-6.71875c-10.136718-.039062-19.15625-6.441406-22.535156-16zm-145.367187 80.28125v-304l96-.238281v248c0 4.417969 3.582031 8 8 8h25.757812l20.128907 80.277344h-120c-17.089844-.621094-30.457032-14.949219-29.886719-32.039063zm238.246093 32-20.136718-80.28125h53.890625v80.28125zm49.753907 15.71875v-112h16v112zm32 0v-112h16v112zm32-112h16v112h-16zm88 112h-56v-112h56c4.417969 0 8 3.582032 8 8v8.128906h-32c-4.417969 0-8 3.582032-8 8 0 4.417969 3.582031 8 8 8h32v16h-32c-4.417969 0-8 3.582032-8 8 0 4.417969 3.582031 8 8 8h32v16h-32c-4.417969 0-8 3.582032-8 8 0 4.417969 3.582031 8 8 8h32v7.871094c0 4.417969-3.582031 8-8 8zm0 0" fill="#FFFFFF"/></svg>
