<?xml version="1.0" encoding="iso-8859-1"?>
<!-- Generator: Adobe Illustrator 19.0.0, SVG Export Plug-In . SVG Version: 6.00 Build 0)  -->
<svg xmlns="http://www.w3.org/2000/svg" xmlns:xlink="http://www.w3.org/1999/xlink" version="1.1" id="Capa_1" x="0px" y="0px" viewBox="0 0 480 480" style="enable-background:new 0 0 480 480;" xml:space="preserve" width="512px" height="512px">
<g>
	<g>
		<path d="M407.231,413.096h-0.016l-23.2-3.872V408c-0.001-3.672-2.501-6.871-6.064-7.76l-97.704-24.416    c-14.235-3.562-24.223-16.35-24.232-31.024v-37.12c8.773,7.927,20.176,12.317,32,12.32h8c4.418,0,8-3.582,8-8v-24    c-0.012-16.098-8.093-31.119-21.52-40c13.427-8.881,21.508-23.902,21.52-40v-24c0-4.418-3.582-8-8-8h-8    c-11.824,0.003-23.227,4.393-32,12.32V120c0-4.418-3.582-8-8-8h-7.408l7.408-103.432c0.314-4.407-3.005-8.234-7.412-8.548    C240.408,0.006,240.211,0,240.015,0h-144c-4.418-0.011-8.009,3.562-8.02,7.98c0,0.196,0.006,0.392,0.02,0.588L95.423,112h-7.408    c-4.418,0-8,3.582-8,8v312c0.026,26.499,21.501,47.974,48,48h248c4.418,0,8-3.582,8-8h18.344    c16.379-0.017,29.642-13.308,29.626-29.686C431.97,427.838,421.507,415.489,407.231,413.096z M256.015,224    c0-17.673,14.327-32,32-32v16c0,17.673-14.327,32-32,32V224z M256.015,256c17.673,0,32,14.327,32,32v16c-17.673,0-32-14.327-32-32    V256z M144.015,364.688L123.327,344l48-48h20.688c4.418,0,8-3.582,8-8v-20.688l40-40v41.376L144.015,364.688z M240.015,291.312    v41.376l-64,64L155.327,376L240.015,291.312z M136.015,280v-76.688l48-48V280H136.015z M200.015,244.688v-44.056l40-38v42.056    L200.015,244.688z M200.015,178.576v-39.264L211.327,128h28.688v12.568L200.015,178.576z M231.423,16l-6.856,96H111.463l-6.856-96    H231.423z M96.015,128h8h20.688l-28.688,28.688V128z M96.015,179.312L147.327,128h41.376l-2.344,2.344l-64,64l-26.344,26.344    V179.312z M96.015,243.312l24-24v35.256l-24,22.8V243.312z M96.015,299.432l24-22.8V288c0,4.418,3.582,8,8,8h20.688    l-36.688,36.688l-16-16V299.432z M128.015,464c-17.673,0-32-14.327-32-32v-28.688L156.703,464H128.015z M179.327,464    l-83.312-83.312v-41.376L220.703,464H179.327z M243.327,464l-56-56l20.688-20.688L284.703,464H243.327z M307.327,464l-88-88    l21.728-21.728c3.575,17.959,17.092,32.299,34.808,36.928l72.8,72.8H307.327z M368.015,416v44.688l-61.92-61.92l61.92,15.48V416z     M415.837,444.578c-1.093,6.592-6.796,11.425-13.478,11.422h-18.344v-30.552l20.584,3.424    C412.039,430.106,417.071,437.138,415.837,444.578z" fill="#FFFFFF"/>
	</g>
</g>
<g>
	<g>
		<rect x="152.015" y="248" width="16" height="16" fill="#FFFFFF"/>
	</g>
</g>
<g>
	<g>
		<path d="M64.015,432V272h-16v160c0.003,12.766,3.053,25.346,8.896,36.696l14.208-7.36C66.419,452.274,63.981,442.209,64.015,432z" fill="#FFFFFF"/>
	</g>
</g>
<g>
	<g>
		<rect x="48.015" y="240" width="16" height="16" fill="#FFFFFF"/>
	</g>
</g>
<g>
</g>
<g>
</g>
<g>
</g>
<g>
</g>
<g>
</g>
<g>
</g>
<g>
</g>
<g>
</g>
<g>
</g>
<g>
</g>
<g>
</g>
<g>
</g>
<g>
</g>
<g>
</g>
<g>
</g>
</svg>
