<?xml version="1.0"?>
<svg xmlns="http://www.w3.org/2000/svg" height="512px" viewBox="0 -72 480 480" width="512px"><path d="m408 200c-5.386719.015625-10.753906.640625-16 1.855469v-83.328125c9.554688-3.378906 15.957031-12.394532 16-22.527344v-8c0-13.253906-10.746094-24-24-24h-16v-24c0-3.03125-1.710938-5.804688-4.425781-7.160156l-27.574219-13.785156v-11.054688c0-4.417969-3.582031-8-8-8s-8 3.582031-8 8v32c0 4.417969 3.582031 8 8 8s8-3.582031 8-8v-3.054688l16 8v19.054688h-4c-9.0625.015625-17.550781 4.425781-22.777344 11.832031l-16.984375-10.617187c-1.269531-.792969-2.738281-1.214844-4.238281-1.214844h-24c-4.417969 0-8 3.582031-8 8s3.582031 8 8 8h21.703125l18.351563 11.472656c0 .175782-.054688.34375-.054688.527344.039062 10.777344 6.261719 20.574219 16 25.191406v31.609375c-.078125 30.039063-9.921875 59.242188-28.046875 83.199219h-67.953125v-22.878906l14.039062-49.121094h1.960938c13.253906 0 24-10.746094 24-24s-10.746094-24-24-24h-136v-48c0-4.417969-3.582031-8-8-8h-96c-4.417969 0-8 3.582031-8 8v88c-4.417969 0-8 3.582031-8 8s3.582031 8 8 8h28.152344l24.800781 31.007812c-6.207031 8.96875-10.308594 19.21875-12 29.992188-.136719.847656-.335937 1.671875-.449219 2.527344-.113281.855468-.078125 1.535156-.152344 2.304687-.160156 1.824219-.359374 3.640625-.359374 5.496094v32.671875c0 4.417969 3.582031 8 8 8h24c0 30.929688 25.070312 56 56 56 30.929687 0 56-25.070312 56-56h160.007812c0 30.929688 25.070312 56 56 56s56-25.070312 56-56h8c4.417969 0 8-3.582031 8-8-.042969-39.746094-32.253906-71.957031-72-72zm-60-120h36c4.417969 0 8 3.582031 8 8v8c0 4.417969-3.582031 8-8 8h-36c-6.628906 0-12-5.371094-12-12s5.371094-12 12-12zm-228 48h136c4.417969 0 8 3.582031 8 8s-3.582031 8-8 8h-136zm-48-56h32v24h-32zm0 40h32v40h-32zm-16 40h-32v-40h32zm0-56h-32v-24h32zm.648438 72h35.09375l-15.335938 14.695312c-1.671875 1.273438-3.199219 2.671876-4.742188 4.074219zm79.351562 152c-22.082031-.027344-39.972656-17.917969-40-40h16c0 13.253906 10.746094 24 24 24s24-10.746094 24-24h16c-.027344 22.082031-17.917969 39.972656-40 40zm-8-40h16c0 4.417969-3.582031 8-8 8s-8-3.582031-8-8zm96-40v24h-160v-24c.027344-2.8125.265625-5.621094.71875-8.398438 3.726562-22.839843 23.460938-39.609374 46.601562-39.601562h65.359376c26.125.03125 47.292968 21.203125 47.320312 47.328125zm2.03125-40.246094c-11.988281-15.007812-30.144531-23.746094-49.351562-23.753906h-65.359376c-1.734374 0-3.449218.207031-5.167968.351562l17.046875-16.351562h114.191406zm110.441406 64.246094h-96.472656v-16h100.199219c-1.851563 5.171875-3.105469 10.542969-3.726563 16zm11.703125-32h-20.609375c15.914063-24.835938 24.390625-53.703125 24.433594-83.199219v-28.800781h24v87.601562c-11.230469 5.585938-20.820312 13.992188-27.824219 24.398438zm59.824219 88c-22.082031-.027344-39.972656-17.917969-40-40h16c0 13.253906 10.746094 24 24 24s24-10.746094 24-24h16c-.027344 22.082031-17.917969 39.972656-40 40zm-8-40h16c0 4.417969-3.582031 8-8 8s-8-3.582031-8-8zm-47.433594-16c3.957032-27.570312 27.578125-48.042969 55.433594-48.042969s51.476562 20.472657 55.433594 48.042969zm0 0" fill="#FFFFFF"/><path d="m170.34375 210.34375-16 16c-2.078125 2.007812-2.914062 4.984375-2.179688 7.78125.730469 2.796875 2.914063 4.980469 5.710938 5.710938 2.796875.734374 5.773438-.101563 7.78125-2.179688l16-16c3.03125-3.140625 2.988281-8.128906-.097656-11.214844-3.085938-3.085937-8.074219-3.128906-11.214844-.097656zm0 0" fill="#FFFFFF"/><path d="m130.34375 210.34375-16 16c-2.078125 2.007812-2.914062 4.984375-2.179688 7.78125.730469 2.796875 2.914063 4.980469 5.710938 5.710938 2.796875.734374 5.773438-.101563 7.78125-2.179688l16-16c3.03125-3.140625 2.988281-8.128906-.097656-11.214844-3.085938-3.085937-8.074219-3.128906-11.214844-.097656zm0 0" fill="#FFFFFF"/></svg>
